#!OML:ASF Y:\EmotionMaleHayes\Project 1\Capture day 1\Session 1\Male1.ASF
:FULLY-SPECIFIED
:DEGREES
1
root -28.1254 17.0674 0.503351 33.8726 86.2443 33.3804
lowerback 2.26903 1.38827 -4.10195
upperback -0.749461 1.72508 -0.209585
thorax -2.15824 0.915826 2.01024
lowerneck -22.6963 1.89991 4.27139
upperneck 21.7332 1.76409 -1.95251
head 10.8197 0.952055 -1.12889
rclavicle 6.16859e-016 -5.73991e-015
rhumerus -35.7757 8.69023 -91.4052
rradius 30.0771
rwrist 5.77314
rhand -9.70494 -31.4103
rfingers 7.12502
rthumb 16.2678 -60.7478
lclavicle 6.16859e-016 -5.73991e-015
lhumerus -32.5739 -9.37076 92.5934
lradius 23.2169
lwrist -16.7476
lhand -10.8259 -25.7956
lfingers 7.12502
lthumb 15.1882 3.627
rfemur 9.731 -3.98539 12.6187
rtibia 0.930631
rfoot -15.4368 -2.33493
rtoes 7.05527
lfemur 12.029 -1.5738 -16.3286
ltibia -3.3803
lfoot -10.9325 13.1839
ltoes -13.4842
2
root -28.1209 17.0658 0.501871 35.0624 86.106 34.5097
lowerback 2.16292 1.41609 -4.21271
upperback -0.764328 1.76309 -0.280053
thorax -2.1177 0.935558 2.00045
lowerneck -22.7111 1.86762 4.25519
upperneck 21.7661 1.70608 -1.8823
head 10.8319 0.933732 -1.10993
rclavicle -9.32903e-015 -1.56543e-015
rhumerus -35.7197 8.57759 -91.4147
rradius 29.9928
rwrist 5.82654
rhand -9.70846 -31.335
rfingers 7.12502
rthumb 16.2644 -60.6728
lclavicle -9.32903e-015 -1.56543e-015
lhumerus -32.6133 -9.4868 92.5808
lradius 23.2995
lwrist -16.6703
lhand -11.7049 -26.0269
lfingers 7.12502
lthumb 14.3414 3.45775
rfemur 9.63446 -4.16166 12.3949
rtibia 1.06126
rfoot -15.4878 -2.08354
rtoes 7.00944
lfemur 11.8974 -1.13113 -16.3832
ltibia -3.21612
lfoot -10.9361 12.7816
ltoes -13.4504
3
root -28.1253 17.0657 0.504165 33.8151 86.3151 33.2784
lowerback 2.24782 1.39766 -4.01088
upperback -0.740714 1.7407 -0.273087
thorax -2.13343 0.921516 1.89399
lowerneck -22.9141 1.85128 4.29234
upperneck 21.866 1.64026 -1.80651
head 10.9042 0.916344 -1.09863
rclavicle -1.08912e-014 8.39865e-015
rhumerus -35.6075 8.49999 -91.4541
rradius 29.9345
rwrist 5.80612
rhand -9.81356 -31.1469
rfingers 7.12502
rthumb 16.1632 -60.493
lclavicle -1.08912e-014 8.39865e-015
lhumerus -32.5443 -9.77902 92.5973
lradius 23.3134
lwrist -16.4835
lhand -13.5999 -25.9886
lfingers 7.12502
lthumb 12.5148 3.61667
rfemur 9.63089 -4.12682 12.6505
rtibia 1.10576
rfoot -15.6056 -2.25029
rtoes 6.89543
lfemur 11.82 -1.27844 -16.1616
ltibia -3.08808
lfoot -10.9443 12.7403
ltoes -12.8897
4
root -28.1254 17.0654 0.506167 31.6073 86.373 31.1055
lowerback 2.27124 1.37274 -3.85829
upperback -0.705935 1.71185 -0.249901
thorax -2.10493 0.904118 1.83376
lowerneck -22.9776 1.90714 4.31162
upperneck 21.8878 1.69898 -1.77181
head 10.9261 0.948839 -1.07963
rclavicle -1.15029e-014 -1.14301e-015
rhumerus -35.5616 8.65105 -91.5635
rradius 29.9435
rwrist 5.73644
rhand -9.92864 -31.159
rfingers 7.12502
rthumb 16.0524 -60.5141
lclavicle -1.15029e-014 -1.14301e-015
lhumerus -32.4374 -9.8061 92.5416
lradius 23.2267
lwrist -16.4332
lhand -12.3479 -25.9298
lfingers 7.12502
lthumb 13.7217 3.59779
rfemur 9.6421 -4.05007 12.8598
rtibia 1.13589
rfoot -15.6596 -2.31248
rtoes 6.61394
lfemur 11.9244 -1.59808 -16.086
ltibia -3.1642
lfoot -10.9462 13.0767
ltoes -12.5807
5
root -28.1221 17.0635 0.506602 31.4026 86.2745 30.8876
lowerback 2.23113 1.39372 -4.00535
upperback -0.717785 1.73816 -0.172037
thorax -2.10331 0.919714 1.99569
lowerneck -22.921 1.89273 4.15852
upperneck 21.9009 1.73391 -1.75904
head 10.9197 0.95399 -1.04435
rclavicle 2.79153e-015 4.57205e-015
rhumerus -35.6232 8.81546 -91.4912
rradius 29.9981
rwrist 5.69579
rhand -10.0047 -31.2663
rfingers 7.12502
rthumb 15.9791 -60.6272
lclavicle 2.79153e-015 4.57205e-015
lhumerus -32.4392 -9.73772 92.6599
lradius 23.1899
lwrist -16.4607
lhand -13.441 -25.5982
lfingers 7.12502
lthumb 12.6681 3.99762
rfemur 9.62552 -4.00985 12.8272
rtibia 1.1349
rfoot -15.615 -2.22713
rtoes 6.49586
lfemur 12.0341 -1.84871 -16.2478
ltibia -3.33243
lfoot -11.0111 13.425
ltoes -12.7687
6
root -28.1202 17.0623 0.506725 31.5025 86.2746 30.9877
lowerback 2.2158 1.41658 -3.9953
upperback -0.717466 1.76952 -0.184763
thorax -2.09567 0.935034 1.97598
lowerneck -22.875 1.84567 4.13209
upperneck 21.9014 1.67486 -1.73876
head 10.9088 0.928061 -1.04218
rclavicle -1.1164e-014 1.06847e-014
rhumerus -35.6675 8.76201 -91.4812
rradius 30.0858
rwrist 5.72953
rhand -10.0209 -31.3221
rfingers 7.12502
rthumb 15.9635 -60.6843
lclavicle -1.1164e-014 1.06847e-014
lhumerus -32.4162 -9.8313 92.6921
lradius 23.1589
lwrist -16.4794
lhand -12.6658 -25.6949
lfingers 7.12502
lthumb 13.4153 3.85312
rfemur 9.66529 -3.93058 12.8549
rtibia 1.07069
rfoot -15.5824 -2.25852
rtoes 6.79585
lfemur 12.0476 -1.85817 -16.2508
ltibia -3.3587
lfoot -11.0935 13.403
ltoes -12.5007
7
root -28.1174 17.0624 0.506063 31.45 86.3236 30.9494
lowerback 2.22975 1.40605 -3.95146
upperback -0.720978 1.75591 -0.191533
thorax -2.10464 0.927833 1.94469
lowerneck -22.8166 1.83398 4.18304
upperneck 21.8766 1.65171 -1.77047
head 10.8888 0.918025 -1.06594
rclavicle -1.31194e-014 1.76421e-015
rhumerus -35.7253 8.74705 -91.499
rradius 30.1781
rwrist 5.74816
rhand -9.90351 -31.3721
rfingers 7.12502
rthumb 16.0766 -60.7252
lclavicle -1.31194e-014 1.76421e-015
lhumerus -32.3945 -9.71245 92.6234
lradius 23.1275
lwrist -16.6668
lhand -13.5283 -25.6979
lfingers 7.12502
lthumb 12.5839 3.90308
rfemur 9.73848 -3.89676 12.8931
rtibia 0.98861
rfoot -15.6156 -2.35866
rtoes 6.80879
lfemur 12.0675 -1.89308 -16.2196
ltibia -3.36945
lfoot -11.0933 13.3817
ltoes -11.8688
8
root -28.1145 17.0626 0.504981 30.4599 86.3544 29.9581
lowerback 2.17792 1.37612 -3.79369
upperback -0.698043 1.72295 -0.228564
thorax -2.04369 0.90776 1.82154
lowerneck -22.7234 1.86346 4.26607
upperneck 21.8002 1.66904 -1.77827
head 10.8449 0.931676 -1.07981
rclavicle 6.49438e-015 -1.05356e-014
rhumerus -35.7052 8.75667 -91.6005
rradius 30.2329
rwrist 5.77918
rhand -9.76326 -31.659
rfingers 7.12502
rthumb 16.2116 -61.0011
lclavicle 6.49438e-015 -1.05356e-014
lhumerus -32.3741 -9.65028 92.4861
lradius 23.1788
lwrist -16.7021
lhand -12.4221 -26.0637
lfingers 7.12502
lthumb 13.6503 3.46873
rfemur 9.75158 -3.90808 12.97
rtibia 0.978437
rfoot -15.6545 -2.38371
rtoes 6.35283
lfemur 12.099 -1.91098 -16.1485
ltibia -3.40357
lfoot -11.0405 13.4325
ltoes -11.8908
9
root -28.1166 17.0632 0.5059 29.5803 86.36 29.0803
lowerback 2.19334 1.37836 -3.82528
upperback -0.686879 1.72542 -0.159801
thorax -2.04417 0.909526 1.90955
lowerneck -22.6563 1.86675 4.26119
upperneck 21.7369 1.70005 -1.86324
head 10.8106 0.934016 -1.10504
rclavicle -1.31747e-014 1.16538e-014
rhumerus -35.7299 8.89178 -91.5609
rradius 30.3374
rwrist 5.71721
rhand -9.74479 -31.9259
rfingers 7.12502
rthumb 16.2294 -61.2666
lclavicle -1.31747e-014 1.16538e-014
lhumerus -32.3518 -9.54169 92.5198
lradius 23.2226
lwrist -16.7771
lhand -13.2751 -25.6068
lfingers 7.12502
lthumb 12.828 3.97905
rfemur 9.71954 -3.87039 13.0619
rtibia 1.01617
rfoot -15.6411 -2.41252
rtoes 6.13685
lfemur 12.0807 -1.85031 -16.0609
ltibia -3.38023
lfoot -10.9819 13.4564
ltoes -12.3793
10
root -28.1174 17.0632 0.506593 31.2864 86.2803 30.7444
lowerback 2.22561 1.39218 -3.99029
upperback -0.744942 1.73587 -0.199281
thorax -2.12669 0.919083 1.95906
lowerneck -22.6101 1.84979 4.30833
upperneck 21.7446 1.67749 -1.91787
head 10.805 0.921392 -1.13638
rclavicle -6.63337e-015 7.95139e-016
rhumerus -35.814 8.87834 -91.5676
rradius 30.3783
rwrist 5.70789
rhand -9.79237 -31.6921
rfingers 7.12502
rthumb 16.1836 -61.0365
lclavicle -6.63337e-015 7.95139e-016
lhumerus -32.4208 -9.40812 92.4635
lradius 23.2436
lwrist -16.9976
lhand -11.9704 -25.9463
lfingers 7.12502
lthumb 14.0855 3.55632
rfemur 9.66337 -4.04569 12.8392
rtibia 1.04061
rfoot -15.5675 -2.26706
rtoes 5.79923
lfemur 11.9897 -1.7729 -16.2053
ltibia -3.31125
lfoot -10.9366 13.4305
ltoes -12.8298
